<?xml version="1.0" encoding="UTF-8" standalone="no"?>
<!-- Generated by graphviz version 2.43.0 (0)
 -->

<!-- Title: DTS Pages: 1 -->

<svg
   width="3000pt"
   height="1530pt"
   viewBox="0.00 0.00 720.00 367.09"
   version="1.1"
   id="svg272"
   sodipodi:docname="device-tree.svg"
   inkscape:version="1.2.2 (b0a8486541, 2022-12-01)"
   xmlns:inkscape="http://www.inkscape.org/namespaces/inkscape"
   xmlns:sodipodi="http://sodipodi.sourceforge.net/DTD/sodipodi-0.dtd"
   xmlns="http://www.w3.org/2000/svg"
   xmlns:svg="http://www.w3.org/2000/svg">
  <defs
     id="defs276" />
  <sodipodi:namedview
     id="namedview274"
     pagecolor="#ffffff"
     bordercolor="#000000"
     borderopacity="0.25"
     inkscape:showpageshadow="2"
     inkscape:pageopacity="0.0"
     inkscape:pagecheckerboard="0"
     inkscape:deskcolor="#d1d1d1"
     inkscape:document-units="pt"
     showgrid="true"
     inkscape:zoom="0.078959499"
     inkscape:cx="5901.7599"
     inkscape:cy="4597.2936"
     inkscape:window-width="1854"
     inkscape:window-height="1131"
     inkscape:window-x="0"
     inkscape:window-y="0"
     inkscape:window-maximized="1"
     inkscape:current-layer="graph0">
    <inkscape:grid
       type="xygrid"
       id="grid436" />
  </sodipodi:namedview>
  <g
     id="graph0"
     class="graph"
     transform="scale(3.48 3.48) rotate(0) translate(4 436)">
    <title
       id="title2">DTS</title>
    <polygon
       fill="#ffffff"
       stroke="transparent"
       points="859,-436 859,4 -4,4 -4,-436 "
       id="polygon4"
       transform="matrix(0.61373716,0,0,0.92159417,-1.5450513,-34.18494)" />
    <!-- root -->
    <g
       id="node1"
       class="node"
       transform="translate(-4.2413793,-104.23994)">
      <title
         id="title6">root</title>
      <polygon
         fill="none"
         stroke="#000000"
         points="8.5,-323.5 157.5,-323.5 157.5,-302.5 8.5,-302.5 "
         id="polygon8" />
      <text
         text-anchor="start"
         x="81"
         y="-310.89999"
         font-family="Times, serif"
         font-weight="bold"
         font-size="12px"
         id="text10">/</text>
      <polygon
         fill="none"
         stroke="#000000"
         points="8.5,-302.5 68.5,-302.5 68.5,-281.5 8.5,-281.5 "
         id="polygon12" />
      <text
         text-anchor="start"
         x="12.5"
         y="-288.89999"
         font-family="Times, serif"
         font-size="12px"
         id="text14">compatible</text>
      <polygon
         fill="none"
         stroke="#000000"
         points="68.5,-302.5 157.5,-302.5 157.5,-281.5 68.5,-281.5 "
         id="polygon16" />
      <text
         text-anchor="start"
         x="87"
         y="-288.89999"
         font-family="Times, serif"
         font-size="12px"
         id="text18">riscv-virtio</text>
      <polygon
         fill="none"
         stroke="#000000"
         points="8.5,-281.5 68.5,-281.5 68.5,-260.5 8.5,-260.5 "
         id="polygon20" />
      <text
         text-anchor="start"
         x="23.5"
         y="-267.89999"
         font-family="Times, serif"
         font-size="12px"
         id="text22">model</text>
      <polygon
         fill="none"
         stroke="#000000"
         points="68.5,-281.5 157.5,-281.5 157.5,-260.5 68.5,-260.5 "
         id="polygon24" />
      <text
         text-anchor="start"
         x="72.5"
         y="-267.89999"
         font-family="Times, serif"
         font-size="12px"
         id="text26">riscv-virtio,qemu</text>
    </g>
    <!-- memory -->
    <g
       id="node2"
       class="node"
       transform="translate(13.517236,-35.495112)">
      <title
         id="title29">memory</title>
      <polygon
         fill="none"
         stroke="#000000"
         points="181,-391.5 505,-391.5 505,-370.5 181,-370.5 "
         id="polygon31" />
      <text
         text-anchor="start"
         x="292"
         y="-378.89999"
         font-family="Times, serif"
         font-weight="bold"
         font-size="12px"
         id="text33">memory@80000000</text>
      <polygon
         fill="none"
         stroke="#000000"
         points="181,-370.5 247,-370.5 247,-349.5 181,-349.5 "
         id="polygon35" />
      <text
         text-anchor="start"
         x="185"
         y="-356.89999"
         font-family="Times, serif"
         font-size="12px"
         id="text37">device_type</text>
      <polygon
         fill="none"
         stroke="#000000"
         points="247,-370.5 505,-370.5 505,-349.5 247,-349.5 "
         id="polygon39" />
      <text
         text-anchor="start"
         x="356"
         y="-356.89999"
         font-family="Times, serif"
         font-size="12px"
         id="text41">memory</text>
      <polygon
         fill="none"
         stroke="#000000"
         points="181,-349.5 247,-349.5 247,-328.5 181,-328.5 "
         id="polygon43" />
      <text
         text-anchor="start"
         x="206"
         y="-335.89999"
         font-family="Times, serif"
         font-size="12px"
         id="text45">reg</text>
      <polygon
         fill="none"
         stroke="#000000"
         points="247,-349.5 505,-349.5 505,-328.5 247,-328.5 "
         id="polygon47" />
      <text
         text-anchor="start"
         x="251"
         y="-335.89999"
         font-family="Times, serif"
         font-size="12px"
         id="text49">0x00000000 0x80000000 0x00000000 0x80000000</text>
    </g>
    <!-- root&#45;&gt;memory -->
    <!-- cpus -->
    <g
       id="node3"
       class="node"
       transform="translate(-252.24138,-10.97788)">
      <title
         id="title59">cpus</title>
      <polygon
         fill="none"
         stroke="#000000"
         points="258,-313.5 428,-313.5 428,-292.5 258,-292.5 "
         id="polygon61" />
      <text
         text-anchor="start"
         x="331"
         y="-300.89999"
         font-family="Times, serif"
         font-weight="bold"
         font-size="12px"
         id="text63">cpus</text>
      <polygon
         fill="none"
         stroke="#000000"
         points="258,-292.5 359,-292.5 359,-271.5 258,-271.5 "
         id="polygon65" />
      <text
         text-anchor="start"
         x="262"
         y="-278.89999"
         font-family="Times, serif"
         font-size="12px"
         id="text67">timebase-frequency</text>
      <polygon
         fill="none"
         stroke="#000000"
         points="359,-292.5 428,-292.5 428,-271.5 359,-271.5 "
         id="polygon69" />
      <text
         text-anchor="start"
         x="363"
         y="-278.89999"
         font-family="Times, serif"
         font-size="12px"
         id="text71">0x00989680</text>
    </g>
    <!-- root&#45;&gt;cpus -->
    <!-- soc -->
    <g
       id="node5"
       class="node"
       transform="translate(-87.551718,-159.48126)">
      <title
         id="title81">soc</title>
      <polygon
         fill="none"
         stroke="#000000"
         points="283,-194.5 403,-194.5 403,-173.5 283,-173.5 "
         id="polygon83" />
      <text
         text-anchor="start"
         x="335"
         y="-181.89999"
         font-family="Times, serif"
         font-weight="bold"
         font-size="12px"
         id="text85">soc</text>
      <polygon
         fill="none"
         stroke="#000000"
         points="283,-173.5 343,-173.5 343,-152.5 283,-152.5 "
         id="polygon87" />
      <text
         text-anchor="start"
         x="287"
         y="-159.89999"
         font-family="Times, serif"
         font-size="12px"
         id="text89">compatible</text>
      <polygon
         fill="none"
         stroke="#000000"
         points="343,-173.5 403,-173.5 403,-152.5 343,-152.5 "
         id="polygon91" />
      <text
         text-anchor="start"
         x="347"
         y="-159.89999"
         font-family="Times, serif"
         font-size="12px"
         id="text93">simple-bus</text>
    </g>
    <!-- root&#45;&gt;soc -->
    <!-- cpu0 -->
    <g
       id="node4"
       class="node"
       transform="translate(-592.68966,169.10489)">
      <title
         id="title103">cpu0</title>
      <polygon
         fill="none"
         stroke="#000000"
         points="779,-427.5 779,-406.5 597,-406.5 597,-427.5 "
         id="polygon105" />
      <text
         text-anchor="start"
         x="669.5"
         y="-414.89999"
         font-family="Times, serif"
         font-weight="bold"
         font-size="12px"
         id="text107">cpu@0</text>
      <polygon
         fill="none"
         stroke="#000000"
         points="696,-406.5 696,-385.5 597,-385.5 597,-406.5 "
         id="polygon109" />
      <text
         text-anchor="start"
         x="617.5"
         y="-392.89999"
         font-family="Times, serif"
         font-size="12px"
         id="text111">device_type</text>
      <polygon
         fill="none"
         stroke="#000000"
         points="779,-406.5 779,-385.5 696,-385.5 696,-406.5 "
         id="polygon113" />
      <text
         text-anchor="start"
         x="728.5"
         y="-392.89999"
         font-family="Times, serif"
         font-size="12px"
         id="text115">cpu</text>
      <polygon
         fill="none"
         stroke="#000000"
         points="696,-385.5 696,-364.5 597,-364.5 597,-385.5 "
         id="polygon117" />
      <text
         text-anchor="start"
         x="638.5"
         y="-371.89999"
         font-family="Times, serif"
         font-size="12px"
         id="text119">reg</text>
      <polygon
         fill="none"
         stroke="#000000"
         points="779,-385.5 779,-364.5 696,-364.5 696,-385.5 "
         id="polygon121" />
      <text
         text-anchor="start"
         x="707"
         y="-371.89999"
         font-family="Times, serif"
         font-size="12px"
         id="text123">0x00000000</text>
      <polygon
         fill="none"
         stroke="#000000"
         points="696,-364.5 696,-343.5 597,-343.5 597,-364.5 "
         id="polygon125" />
      <text
         text-anchor="start"
         x="633"
         y="-350.89999"
         font-family="Times, serif"
         font-size="12px"
         id="text127">status</text>
      <polygon
         fill="none"
         stroke="#000000"
         points="779,-364.5 779,-343.5 696,-343.5 696,-364.5 "
         id="polygon129" />
      <text
         text-anchor="start"
         x="725.5"
         y="-350.89999"
         font-family="Times, serif"
         font-size="12px"
         id="text131">okay</text>
      <polygon
         fill="none"
         stroke="#000000"
         points="696,-343.5 696,-322.5 597,-322.5 597,-343.5 "
         id="polygon133" />
      <text
         text-anchor="start"
         x="620.5"
         y="-329.89999"
         font-family="Times, serif"
         font-size="12px"
         id="text135">compatible</text>
      <polygon
         fill="none"
         stroke="#000000"
         points="779,-343.5 779,-322.5 696,-322.5 696,-343.5 "
         id="polygon137" />
      <text
         text-anchor="start"
         x="726"
         y="-329.89999"
         font-family="Times, serif"
         font-size="12px"
         id="text139">riscv</text>
      <polygon
         fill="none"
         stroke="#000000"
         points="696,-322.5 696,-301.5 597,-301.5 597,-322.5 "
         id="polygon141" />
      <text
         text-anchor="start"
         x="601"
         y="-308.89999"
         font-family="Times, serif"
         font-size="12px"
         id="text143">riscv,isa-extensions</text>
      <polygon
         fill="none"
         stroke="#000000"
         points="779,-322.5 779,-301.5 696,-301.5 696,-322.5 "
         id="polygon145" />
      <text
         text-anchor="start"
         x="700"
         y="-308.89999"
         font-family="Times, serif"
         font-size="12px"
         id="text147">i, m, a, f, d, c, h</text>
      <polygon
         fill="none"
         stroke="#000000"
         points="696,-301.5 696,-280.5 597,-280.5 597,-301.5 "
         id="polygon149" />
      <text
         text-anchor="start"
         x="622"
         y="-287.89999"
         font-family="Times, serif"
         font-size="12px"
         id="text151">mmu-type</text>
      <polygon
         fill="none"
         stroke="#000000"
         points="779,-301.5 779,-280.5 696,-280.5 696,-301.5 "
         id="polygon153" />
      <text
         text-anchor="start"
         x="714"
         y="-287.89999"
         font-family="Times, serif"
         font-size="12px"
         id="text155">riscv,sv57</text>
    </g>
    <!-- cpus&#45;&gt;cpu0 -->
    <!-- serial -->
    <g
       id="node6"
       class="node"
       transform="translate(-333.53448,-34.653736)">
      <title
         id="title165">serial</title>
      <polygon
         fill="none"
         stroke="#000000"
         points="847,-265.5 847,-244.5 529,-244.5 529,-265.5 "
         id="polygon167" />
      <text
         text-anchor="start"
         x="644.5"
         y="-252.89999"
         font-family="Times, serif"
         font-weight="bold"
         font-size="12px"
         id="text169">serial@10000000</text>
      <polygon
         fill="none"
         stroke="#000000"
         points="589,-244.5 589,-223.5 529,-223.5 529,-244.5 "
         id="polygon171" />
      <text
         text-anchor="start"
         x="536.5"
         y="-230.89999"
         font-family="Times, serif"
         font-size="12px"
         id="text173">interrupts</text>
      <polygon
         fill="none"
         stroke="#000000"
         points="847,-244.5 847,-223.5 589,-223.5 589,-244.5 "
         id="polygon175" />
      <text
         text-anchor="start"
         x="688"
         y="-230.89999"
         font-family="Times, serif"
         font-size="12px"
         id="text177">0x0000000a</text>
      <polygon
         fill="none"
         stroke="#000000"
         points="589,-223.5 589,-202.5 529,-202.5 529,-223.5 "
         id="polygon179" />
      <text
         text-anchor="start"
         x="551"
         y="-209.89999"
         font-family="Times, serif"
         font-size="12px"
         id="text181">reg</text>
      <polygon
         fill="none"
         stroke="#000000"
         points="847,-223.5 847,-202.5 589,-202.5 589,-223.5 "
         id="polygon183" />
      <text
         text-anchor="start"
         x="593"
         y="-209.89999"
         font-family="Times, serif"
         font-size="12px"
         id="text185">0x00000000 0x10000000 0x00000000 0x00000100</text>
      <polygon
         fill="none"
         stroke="#000000"
         points="589,-202.5 589,-181.5 529,-181.5 529,-202.5 "
         id="polygon187" />
      <text
         text-anchor="start"
         x="533"
         y="-188.89999"
         font-family="Times, serif"
         font-size="12px"
         id="text189">compatible</text>
      <polygon
         fill="none"
         stroke="#000000"
         points="847,-202.5 847,-181.5 589,-181.5 589,-202.5 "
         id="polygon191" />
      <text
         text-anchor="start"
         x="695"
         y="-188.89999"
         font-family="Times, serif"
         font-size="12px"
         id="text193">ns16550a</text>
    </g>
    <!-- soc&#45;&gt;serial -->
    <!-- virtio1 -->
    <g
       id="node7"
       class="node"
       transform="translate(-333.53448,-34.653736)">
      <title
         id="title203">virtio1</title>
      <polygon
         fill="none"
         stroke="#000000"
         points="847,-166.5 847,-145.5 529,-145.5 529,-166.5 "
         id="polygon205" />
      <text
         text-anchor="start"
         x="627.5"
         y="-153.89999"
         font-family="Times, serif"
         font-weight="bold"
         font-size="12px"
         id="text207">virtio_mmio@10008000</text>
      <polygon
         fill="none"
         stroke="#000000"
         points="589,-145.5 589,-124.5 529,-124.5 529,-145.5 "
         id="polygon209" />
      <text
         text-anchor="start"
         x="536.5"
         y="-131.89999"
         font-family="Times, serif"
         font-size="12px"
         id="text211">interrupts</text>
      <polygon
         fill="none"
         stroke="#000000"
         points="847,-145.5 847,-124.5 589,-124.5 589,-145.5 "
         id="polygon213" />
      <text
         text-anchor="start"
         x="687.5"
         y="-131.89999"
         font-family="Times, serif"
         font-size="12px"
         id="text215">0x00000008</text>
      <polygon
         fill="none"
         stroke="#000000"
         points="589,-124.5 589,-103.5 529,-103.5 529,-124.5 "
         id="polygon217" />
      <text
         text-anchor="start"
         x="551"
         y="-110.9"
         font-family="Times, serif"
         font-size="12px"
         id="text219">reg</text>
      <polygon
         fill="none"
         stroke="#000000"
         points="847,-124.5 847,-103.5 589,-103.5 589,-124.5 "
         id="polygon221" />
      <text
         text-anchor="start"
         x="593"
         y="-110.9"
         font-family="Times, serif"
         font-size="12px"
         id="text223">0x00000000 0x10008000 0x00000000 0x00001000</text>
      <polygon
         fill="none"
         stroke="#000000"
         points="589,-103.5 589,-82.5 529,-82.5 529,-103.5 "
         id="polygon225" />
      <text
         text-anchor="start"
         x="533"
         y="-89.900002"
         font-family="Times, serif"
         font-size="12px"
         id="text227">compatible</text>
      <polygon
         fill="none"
         stroke="#000000"
         points="847,-103.5 847,-82.5 589,-82.5 589,-103.5 "
         id="polygon229" />
      <text
         text-anchor="start"
         x="690.5"
         y="-89.900002"
         font-family="Times, serif"
         font-size="12px"
         id="text231">virtio,mmio</text>
    </g>
    <!-- soc&#45;&gt;virtio1 -->
    <!-- plic -->
    <g
       id="node8"
       class="node"
       transform="translate(-333.53448,-34.653736)">
      <title
         id="title241">plic</title>
      <polygon
         fill="none"
         stroke="#000000"
         points="847,-66.5 847,-45.5 530,-45.5 530,-66.5 "
         id="polygon243" />
      <text
         text-anchor="start"
         x="653"
         y="-53.900002"
         font-family="Times, serif"
         font-weight="bold"
         font-size="12px"
         id="text245">plic@c000000</text>
      <polygon
         fill="none"
         stroke="#000000"
         points="590,-45.5 590,-24.5 530,-24.5 530,-45.5 "
         id="polygon247" />
      <text
         text-anchor="start"
         x="552"
         y="-31.9"
         font-family="Times, serif"
         font-size="12px"
         id="text249">reg</text>
      <polygon
         fill="none"
         stroke="#000000"
         points="847,-45.5 847,-24.5 590,-24.5 590,-45.5 "
         id="polygon251" />
      <text
         text-anchor="start"
         x="594"
         y="-31.9"
         font-family="Times, serif"
         font-size="12px"
         id="text253">0x00000000 0x0c000000 0x00000000 0x00600000</text>
      <polygon
         fill="none"
         stroke="#000000"
         points="590,-24.5 590,-3.5 530,-3.5 530,-24.5 "
         id="polygon255" />
      <text
         text-anchor="start"
         x="534"
         y="-10.9"
         font-family="Times, serif"
         font-size="12px"
         id="text257">compatible</text>
      <polygon
         fill="none"
         stroke="#000000"
         points="847,-24.5 847,-3.5 590,-3.5 590,-24.5 "
         id="polygon259" />
      <text
         text-anchor="start"
         x="655"
         y="-10.9"
         font-family="Times, serif"
         font-size="12px"
         id="text261">sifive,plic-1.0.0, riscv,plic0</text>
    </g>
    <!-- soc&#45;&gt;plic -->
  </g>
</svg>
